#define Tall_width 8
#define Tall_height 8
static char Tall_bits[] = {
  0xFF, 0x91, 0x91, 0xF1, 0x91, 0x91, 0x91, 0xFF, };
