#define pause_width 8
#define pause_height 8
static char pause_bits[] = {
  0x00, 0x66, 0x66, 0x66, 0x66, 0x66, 0x66, 0x00, };
