#define spkr_03_width 8
#define spkr_03_height 8
static char spkr_03_bits[] = {
  0x4C, 0x93, 0x93, 0x97, 0x97, 0x93, 0x93, 0x4C, };
