#define 1_width 8
#define 1_height 8
static char 1_bits[] = {
  0x00, 0x00, 0x00, 0x20, 0x7F, 0x00, 0x00, 0x00, };
