#define 10_width 8
#define 10_height 8
static char 10_bits[] = {
  0x00, 0x08, 0x08, 0x7F, 0x08, 0x08, 0x08, 0x08, };
