#define 2_width 8
#define 2_height 8
static char 2_bits[] = {
  0x00, 0x00, 0x3E, 0x00, 0x00, 0x00, 0x7F, 0x00, };
