#define 3_width 8
#define 3_height 8
static char 3_bits[] = {
  0x00, 0x00, 0x3E, 0x00, 0x1C, 0x00, 0x00, 0x7F, };
