#define 4_width 8
#define 4_height 8
static char 4_bits[] = {
  0x00, 0x7F, 0x55, 0x55, 0x75, 0x43, 0x41, 0x7F, };
