#define 5_width 8
#define 5_height 8
static char 5_bits[] = {
  0x00, 0x3E, 0x08, 0x08, 0x3E, 0x24, 0x24, 0x7F, };
