#define 6_width 8
#define 6_height 8
static char 6_bits[] = {
  0x00, 0x08, 0x7F, 0x00, 0x14, 0x14, 0x22, 0x41, };
