#define 7_width 8
#define 7_height 8
static char 7_bits[] = {
  0x00, 0x04, 0x04, 0x74, 0x0F, 0x04, 0x44, 0x78, };
