#define 8_width 8
#define 8_height 8
static char 8_bits[] = {
  0x00, 0x14, 0x14, 0x14, 0x14, 0x22, 0x22, 0x41, };
