#define 9_width 8
#define 9_height 8
static char 9_bits[] = {
  0x00, 0x04, 0x1F, 0x14, 0x14, 0x12, 0x52, 0x71, };
